<svg class="rich-terminal" viewBox="0 0 1482 1026.0" xmlns="http://www.w3.org/2000/svg">
    <!-- Generated with Rich https://www.textualize.io -->
    <style>

    @font-face {
        font-family: "Fira Code";
        src: local("FiraCode-Regular"),
                url("https://cdnjs.cloudflare.com/ajax/libs/firacode/6.2.0/woff2/FiraCode-Regular.woff2") format("woff2"),
                url("https://cdnjs.cloudflare.com/ajax/libs/firacode/6.2.0/woff/FiraCode-Regular.woff") format("woff");
        font-style: normal;
        font-weight: 400;
    }
    @font-face {
        font-family: "Fira Code";
        src: local("FiraCode-Bold"),
                url("https://cdnjs.cloudflare.com/ajax/libs/firacode/6.2.0/woff2/FiraCode-Bold.woff2") format("woff2"),
                url("https://cdnjs.cloudflare.com/ajax/libs/firacode/6.2.0/woff/FiraCode-Bold.woff") format("woff");
        font-style: bold;
        font-weight: 700;
    }

    .terminal-541306807-matrix {
        font-family: Fira Code, monospace;
        font-size: 20px;
        line-height: 24.4px;
        font-variant-east-asian: full-width;
    }

    .terminal-541306807-title {
        font-size: 18px;
        font-weight: bold;
        font-family: arial;
    }

    .terminal-541306807-r1 { fill: #c5c8c6 }
.terminal-541306807-r2 { fill: #8fb8ff }
.terminal-541306807-r3 { fill: #8fb8ff;font-weight: bold }
.terminal-541306807-r4 { fill: #7a86a3 }
.terminal-541306807-r5 { fill: #d6dcea }
.terminal-541306807-r6 { fill: #d6dcea;font-weight: bold }
.terminal-541306807-r7 { fill: #0d1222 }
.terminal-541306807-r8 { fill: #050a1d }
.terminal-541306807-r9 { fill: #686c75 }
.terminal-541306807-r10 { fill: #1c2131 }
.terminal-541306807-r11 { fill: #cff6ff }
.terminal-541306807-r12 { fill: #000013 }
.terminal-541306807-r13 { fill: #4e7cbf }
    </style>

    <defs>
    <clipPath id="terminal-541306807-clip-terminal">
      <rect x="0" y="0" width="1463.0" height="975.0" />
    </clipPath>
    <clipPath id="terminal-541306807-line-0">
    <rect x="0" y="1.5" width="1464" height="24.65"/>
            </clipPath>
<clipPath id="terminal-541306807-line-1">
    <rect x="0" y="25.9" width="1464" height="24.65"/>
            </clipPath>
<clipPath id="terminal-541306807-line-2">
    <rect x="0" y="50.3" width="1464" height="24.65"/>
            </clipPath>
<clipPath id="terminal-541306807-line-3">
    <rect x="0" y="74.7" width="1464" height="24.65"/>
            </clipPath>
<clipPath id="terminal-541306807-line-4">
    <rect x="0" y="99.1" width="1464" height="24.65"/>
            </clipPath>
<clipPath id="terminal-541306807-line-5">
    <rect x="0" y="123.5" width="1464" height="24.65"/>
            </clipPath>
<clipPath id="terminal-541306807-line-6">
    <rect x="0" y="147.9" width="1464" height="24.65"/>
            </clipPath>
<clipPath id="terminal-541306807-line-7">
    <rect x="0" y="172.3" width="1464" height="24.65"/>
            </clipPath>
<clipPath id="terminal-541306807-line-8">
    <rect x="0" y="196.7" width="1464" height="24.65"/>
            </clipPath>
<clipPath id="terminal-541306807-line-9">
    <rect x="0" y="221.1" width="1464" height="24.65"/>
            </clipPath>
<clipPath id="terminal-541306807-line-10">
    <rect x="0" y="245.5" width="1464" height="24.65"/>
            </clipPath>
<clipPath id="terminal-541306807-line-11">
    <rect x="0" y="269.9" width="1464" height="24.65"/>
            </clipPath>
<clipPath id="terminal-541306807-line-12">
    <rect x="0" y="294.3" width="1464" height="24.65"/>
            </clipPath>
<clipPath id="terminal-541306807-line-13">
    <rect x="0" y="318.7" width="1464" height="24.65"/>
            </clipPath>
<clipPath id="terminal-541306807-line-14">
    <rect x="0" y="343.1" width="1464" height="24.65"/>
            </clipPath>
<clipPath id="terminal-541306807-line-15">
    <rect x="0" y="367.5" width="1464" height="24.65"/>
            </clipPath>
<clipPath id="terminal-541306807-line-16">
    <rect x="0" y="391.9" width="1464" height="24.65"/>
            </clipPath>
<clipPath id="terminal-541306807-line-17">
    <rect x="0" y="416.3" width="1464" height="24.65"/>
            </clipPath>
<clipPath id="terminal-541306807-line-18">
    <rect x="0" y="440.7" width="1464" height="24.65"/>
            </clipPath>
<clipPath id="terminal-541306807-line-19">
    <rect x="0" y="465.1" width="1464" height="24.65"/>
            </clipPath>
<clipPath id="terminal-541306807-line-20">
    <rect x="0" y="489.5" width="1464" height="24.65"/>
            </clipPath>
<clipPath id="terminal-541306807-line-21">
    <rect x="0" y="513.9" width="1464" height="24.65"/>
            </clipPath>
<clipPath id="terminal-541306807-line-22">
    <rect x="0" y="538.3" width="1464" height="24.65"/>
            </clipPath>
<clipPath id="terminal-541306807-line-23">
    <rect x="0" y="562.7" width="1464" height="24.65"/>
            </clipPath>
<clipPath id="terminal-541306807-line-24">
    <rect x="0" y="587.1" width="1464" height="24.65"/>
            </clipPath>
<clipPath id="terminal-541306807-line-25">
    <rect x="0" y="611.5" width="1464" height="24.65"/>
            </clipPath>
<clipPath id="terminal-541306807-line-26">
    <rect x="0" y="635.9" width="1464" height="24.65"/>
            </clipPath>
<clipPath id="terminal-541306807-line-27">
    <rect x="0" y="660.3" width="1464" height="24.65"/>
            </clipPath>
<clipPath id="terminal-541306807-line-28">
    <rect x="0" y="684.7" width="1464" height="24.65"/>
            </clipPath>
<clipPath id="terminal-541306807-line-29">
    <rect x="0" y="709.1" width="1464" height="24.65"/>
            </clipPath>
<clipPath id="terminal-541306807-line-30">
    <rect x="0" y="733.5" width="1464" height="24.65"/>
            </clipPath>
<clipPath id="terminal-541306807-line-31">
    <rect x="0" y="757.9" width="1464" height="24.65"/>
            </clipPath>
<clipPath id="terminal-541306807-line-32">
    <rect x="0" y="782.3" width="1464" height="24.65"/>
            </clipPath>
<clipPath id="terminal-541306807-line-33">
    <rect x="0" y="806.7" width="1464" height="24.65"/>
            </clipPath>
<clipPath id="terminal-541306807-line-34">
    <rect x="0" y="831.1" width="1464" height="24.65"/>
            </clipPath>
<clipPath id="terminal-541306807-line-35">
    <rect x="0" y="855.5" width="1464" height="24.65"/>
            </clipPath>
<clipPath id="terminal-541306807-line-36">
    <rect x="0" y="879.9" width="1464" height="24.65"/>
            </clipPath>
<clipPath id="terminal-541306807-line-37">
    <rect x="0" y="904.3" width="1464" height="24.65"/>
            </clipPath>
<clipPath id="terminal-541306807-line-38">
    <rect x="0" y="928.7" width="1464" height="24.65"/>
            </clipPath>
    </defs>

    <rect fill="#292929" stroke="rgba(255,255,255,0.35)" stroke-width="1" x="1" y="1" width="1480" height="1024" rx="8"/><text class="terminal-541306807-title" fill="#c5c8c6" text-anchor="middle" x="740" y="27">obloha</text>
            <g transform="translate(26,22)">
            <circle cx="0" cy="0" r="7" fill="#ff5f57"/>
            <circle cx="22" cy="0" r="7" fill="#febc2e"/>
            <circle cx="44" cy="0" r="7" fill="#28c840"/>
            </g>
        
    <g transform="translate(9, 41)" clip-path="url(#terminal-541306807-clip-terminal)">
    <rect fill="#0a0e1a" x="0" y="1.5" width="1464" height="24.65" shape-rendering="crispEdges"/><rect fill="#0a0e1a" x="0" y="25.9" width="1464" height="24.65" shape-rendering="crispEdges"/><rect fill="#0a0e1a" x="0" y="50.3" width="1464" height="24.65" shape-rendering="crispEdges"/><rect fill="#0a0e1a" x="0" y="74.7" width="1464" height="24.65" shape-rendering="crispEdges"/><rect fill="#0a0e1a" x="0" y="99.1" width="1464" height="24.65" shape-rendering="crispEdges"/><rect fill="#0a0e1a" x="0" y="123.5" width="1464" height="24.65" shape-rendering="crispEdges"/><rect fill="#0a0e1a" x="0" y="147.9" width="1464" height="24.65" shape-rendering="crispEdges"/><rect fill="#0a0e1a" x="0" y="172.3" width="1464" height="24.65" shape-rendering="crispEdges"/><rect fill="#0a0e1a" x="0" y="196.7" width="1464" height="24.65" shape-rendering="crispEdges"/><rect fill="#0a0e1a" x="0" y="221.1" width="1464" height="24.65" shape-rendering="crispEdges"/><rect fill="#0a0e1a" x="0" y="245.5" width="268.4" height="24.65" shape-rendering="crispEdges"/><rect fill="#0d1222" x="268.4" y="245.5" width="12.2" height="24.65" shape-rendering="crispEdges"/><rect fill="#0d1222" x="280.6" y="245.5" width="12.2" height="24.65" shape-rendering="crispEdges"/><rect fill="#0d1222" x="292.8" y="245.5" width="268.4" height="24.65" shape-rendering="crispEdges"/><rect fill="#0d1222" x="561.2" y="245.5" width="622.2" height="24.65" shape-rendering="crispEdges"/><rect fill="#0d1222" x="1183.4" y="245.5" width="12.2" height="24.65" shape-rendering="crispEdges"/><rect fill="#0a0e1a" x="1195.6" y="245.5" width="268.4" height="24.65" shape-rendering="crispEdges"/><rect fill="#0a0e1a" x="0" y="269.9" width="268.4" height="24.65" shape-rendering="crispEdges"/><rect fill="#0d1222" x="268.4" y="269.9" width="12.2" height="24.65" shape-rendering="crispEdges"/><rect fill="#0d1222" x="280.6" y="269.9" width="12.2" height="24.65" shape-rendering="crispEdges"/><rect fill="#0d1222" x="292.8" y="269.9" width="512.4" height="24.65" shape-rendering="crispEdges"/><rect fill="#0d1222" x="805.2" y="269.9" width="366" height="24.65" shape-rendering="crispEdges"/><rect fill="#0d1222" x="1171.2" y="269.9" width="12.2" height="24.65" shape-rendering="crispEdges"/><rect fill="#0d1222" x="1183.4" y="269.9" width="12.2" height="24.65" shape-rendering="crispEdges"/><rect fill="#0a0e1a" x="1195.6" y="269.9" width="268.4" height="24.65" shape-rendering="crispEdges"/><rect fill="#0a0e1a" x="0" y="294.3" width="268.4" height="24.65" shape-rendering="crispEdges"/><rect fill="#0d1222" x="268.4" y="294.3" width="12.2" height="24.65" shape-rendering="crispEdges"/><rect fill="#0d1222" x="280.6" y="294.3" width="12.2" height="24.65" shape-rendering="crispEdges"/><rect fill="#0d1222" x="292.8" y="294.3" width="0" height="24.65" shape-rendering="crispEdges"/><rect fill="#0d1222" x="292.8" y="294.3" width="878.4" height="24.65" shape-rendering="crispEdges"/><rect fill="#0d1222" x="1171.2" y="294.3" width="12.2" height="24.65" shape-rendering="crispEdges"/><rect fill="#0d1222" x="1183.4" y="294.3" width="12.2" height="24.65" shape-rendering="crispEdges"/><rect fill="#0a0e1a" x="1195.6" y="294.3" width="268.4" height="24.65" shape-rendering="crispEdges"/><rect fill="#0a0e1a" x="0" y="318.7" width="268.4" height="24.65" shape-rendering="crispEdges"/><rect fill="#0d1222" x="268.4" y="318.7" width="12.2" height="24.65" shape-rendering="crispEdges"/><rect fill="#0d1222" x="280.6" y="318.7" width="12.2" height="24.65" shape-rendering="crispEdges"/><rect fill="#0d1222" x="292.8" y="318.7" width="109.8" height="24.65" shape-rendering="crispEdges"/><rect fill="#0d1222" x="402.6" y="318.7" width="134.2" height="24.65" shape-rendering="crispEdges"/><rect fill="#0d1222" x="536.8" y="318.7" width="146.4" height="24.65" shape-rendering="crispEdges"/><rect fill="#0d1222" x="683.2" y="318.7" width="488" height="24.65" shape-rendering="crispEdges"/><rect fill="#0d1222" x="1171.2" y="318.7" width="12.2" height="24.65" shape-rendering="crispEdges"/><rect fill="#0d1222" x="1183.4" y="318.7" width="12.2" height="24.65" shape-rendering="crispEdges"/><rect fill="#0a0e1a" x="1195.6" y="318.7" width="268.4" height="24.65" shape-rendering="crispEdges"/><rect fill="#0a0e1a" x="0" y="343.1" width="268.4" height="24.65" shape-rendering="crispEdges"/><rect fill="#0d1222" x="268.4" y="343.1" width="12.2" height="24.65" shape-rendering="crispEdges"/><rect fill="#0d1222" x="280.6" y="343.1" width="12.2" height="24.65" shape-rendering="crispEdges"/><rect fill="#0d1222" x="292.8" y="343.1" width="866.2" height="24.65" shape-rendering="crispEdges"/><rect fill="#0d1222" x="1159" y="343.1" width="12.2" height="24.65" shape-rendering="crispEdges"/><rect fill="#0d1222" x="1171.2" y="343.1" width="12.2" height="24.65" shape-rendering="crispEdges"/><rect fill="#0d1222" x="1183.4" y="343.1" width="12.2" height="24.65" shape-rendering="crispEdges"/><rect fill="#0a0e1a" x="1195.6" y="343.1" width="268.4" height="24.65" shape-rendering="crispEdges"/><rect fill="#0a0e1a" x="0" y="367.5" width="268.4" height="24.65" shape-rendering="crispEdges"/><rect fill="#0d1222" x="268.4" y="367.5" width="12.2" height="24.65" shape-rendering="crispEdges"/><rect fill="#0d1222" x="280.6" y="367.5" width="12.2" height="24.65" shape-rendering="crispEdges"/><rect fill="#0d1222" x="292.8" y="367.5" width="805.2" height="24.65" shape-rendering="crispEdges"/><rect fill="#0d1222" x="1098" y="367.5" width="73.2" height="24.65" shape-rendering="crispEdges"/><rect fill="#0d1222" x="1171.2" y="367.5" width="12.2" height="24.65" shape-rendering="crispEdges"/><rect fill="#0d1222" x="1183.4" y="367.5" width="12.2" height="24.65" shape-rendering="crispEdges"/><rect fill="#0a0e1a" x="1195.6" y="367.5" width="268.4" height="24.65" shape-rendering="crispEdges"/><rect fill="#0a0e1a" x="0" y="391.9" width="268.4" height="24.65" shape-rendering="crispEdges"/><rect fill="#0d1222" x="268.4" y="391.9" width="12.2" height="24.65" shape-rendering="crispEdges"/><rect fill="#0d1222" x="280.6" y="391.9" width="12.2" height="24.65" shape-rendering="crispEdges"/><rect fill="#0d1222" x="292.8" y="391.9" width="488" height="24.65" shape-rendering="crispEdges"/><rect fill="#0d1222" x="780.8" y="391.9" width="390.4" height="24.65" shape-rendering="crispEdges"/><rect fill="#0d1222" x="1171.2" y="391.9" width="12.2" height="24.65" shape-rendering="crispEdges"/><rect fill="#0d1222" x="1183.4" y="391.9" width="12.2" height="24.65" shape-rendering="crispEdges"/><rect fill="#0a0e1a" x="1195.6" y="391.9" width="268.4" height="24.65" shape-rendering="crispEdges"/><rect fill="#0a0e1a" x="0" y="416.3" width="268.4" height="24.65" shape-rendering="crispEdges"/><rect fill="#0d1222" x="268.4" y="416.3" width="12.2" height="24.65" shape-rendering="crispEdges"/><rect fill="#0d1222" x="280.6" y="416.3" width="12.2" height="24.65" shape-rendering="crispEdges"/><rect fill="#0d1222" x="292.8" y="416.3" width="0" height="24.65" shape-rendering="crispEdges"/><rect fill="#0d1222" x="292.8" y="416.3" width="878.4" height="24.65" shape-rendering="crispEdges"/><rect fill="#0d1222" x="1171.2" y="416.3" width="12.2" height="24.65" shape-rendering="crispEdges"/><rect fill="#0d1222" x="1183.4" y="416.3" width="12.2" height="24.65" shape-rendering="crispEdges"/><rect fill="#0a0e1a" x="1195.6" y="416.3" width="268.4" height="24.65" shape-rendering="crispEdges"/><rect fill="#0a0e1a" x="0" y="440.7" width="268.4" height="24.65" shape-rendering="crispEdges"/><rect fill="#0d1222" x="268.4" y="440.7" width="12.2" height="24.65" shape-rendering="crispEdges"/><rect fill="#0d1222" x="280.6" y="440.7" width="12.2" height="24.65" shape-rendering="crispEdges"/><rect fill="#0d1222" x="292.8" y="440.7" width="646.6" height="24.65" shape-rendering="crispEdges"/><rect fill="#0d1222" x="939.4" y="440.7" width="231.8" height="24.65" shape-rendering="crispEdges"/><rect fill="#0d1222" x="1171.2" y="440.7" width="12.2" height="24.65" shape-rendering="crispEdges"/><rect fill="#0d1222" x="1183.4" y="440.7" width="12.2" height="24.65" shape-rendering="crispEdges"/><rect fill="#0a0e1a" x="1195.6" y="440.7" width="268.4" height="24.65" shape-rendering="crispEdges"/><rect fill="#0a0e1a" x="0" y="465.1" width="268.4" height="24.65" shape-rendering="crispEdges"/><rect fill="#0d1222" x="268.4" y="465.1" width="12.2" height="24.65" shape-rendering="crispEdges"/><rect fill="#0d1222" x="280.6" y="465.1" width="12.2" height="24.65" shape-rendering="crispEdges"/><rect fill="#0d1222" x="292.8" y="465.1" width="646.6" height="24.65" shape-rendering="crispEdges"/><rect fill="#0d1222" x="939.4" y="465.1" width="231.8" height="24.65" shape-rendering="crispEdges"/><rect fill="#0d1222" x="1171.2" y="465.1" width="12.2" height="24.65" shape-rendering="crispEdges"/><rect fill="#0d1222" x="1183.4" y="465.1" width="12.2" height="24.65" shape-rendering="crispEdges"/><rect fill="#0a0e1a" x="1195.6" y="465.1" width="268.4" height="24.65" shape-rendering="crispEdges"/><rect fill="#0a0e1a" x="0" y="489.5" width="268.4" height="24.65" shape-rendering="crispEdges"/><rect fill="#0d1222" x="268.4" y="489.5" width="12.2" height="24.65" shape-rendering="crispEdges"/><rect fill="#0d1222" x="280.6" y="489.5" width="12.2" height="24.65" shape-rendering="crispEdges"/><rect fill="#0d1222" x="292.8" y="489.5" width="646.6" height="24.65" shape-rendering="crispEdges"/><rect fill="#0d1222" x="939.4" y="489.5" width="231.8" height="24.65" shape-rendering="crispEdges"/><rect fill="#0d1222" x="1171.2" y="489.5" width="12.2" height="24.65" shape-rendering="crispEdges"/><rect fill="#0d1222" x="1183.4" y="489.5" width="12.2" height="24.65" shape-rendering="crispEdges"/><rect fill="#0a0e1a" x="1195.6" y="489.5" width="268.4" height="24.65" shape-rendering="crispEdges"/><rect fill="#0a0e1a" x="0" y="513.9" width="268.4" height="24.65" shape-rendering="crispEdges"/><rect fill="#0d1222" x="268.4" y="513.9" width="12.2" height="24.65" shape-rendering="crispEdges"/><rect fill="#0d1222" x="280.6" y="513.9" width="12.2" height="24.65" shape-rendering="crispEdges"/><rect fill="#050a1d" x="292.8" y="513.9" width="12.2" height="24.65" shape-rendering="crispEdges"/><rect fill="#0d1222" x="305" y="513.9" width="854" height="24.65" shape-rendering="crispEdges"/><rect fill="#0d1222" x="1159" y="513.9" width="12.2" height="24.65" shape-rendering="crispEdges"/><rect fill="#0d1222" x="1171.2" y="513.9" width="12.2" height="24.65" shape-rendering="crispEdges"/><rect fill="#0d1222" x="1183.4" y="513.9" width="12.2" height="24.65" shape-rendering="crispEdges"/><rect fill="#0a0e1a" x="1195.6" y="513.9" width="268.4" height="24.65" shape-rendering="crispEdges"/><rect fill="#0a0e1a" x="0" y="538.3" width="268.4" height="24.65" shape-rendering="crispEdges"/><rect fill="#0d1222" x="268.4" y="538.3" width="12.2" height="24.65" shape-rendering="crispEdges"/><rect fill="#0d1222" x="280.6" y="538.3" width="12.2" height="24.65" shape-rendering="crispEdges"/><rect fill="#050a1d" x="292.8" y="538.3" width="12.2" height="24.65" shape-rendering="crispEdges"/><rect fill="#0d1222" x="305" y="538.3" width="24.4" height="24.65" shape-rendering="crispEdges"/><rect fill="#0d1222" x="329.4" y="538.3" width="561.2" height="24.65" shape-rendering="crispEdges"/><rect fill="#0d1222" x="890.6" y="538.3" width="244" height="24.65" shape-rendering="crispEdges"/><rect fill="#0d1222" x="1134.6" y="538.3" width="24.4" height="24.65" shape-rendering="crispEdges"/><rect fill="#0d1222" x="1159" y="538.3" width="12.2" height="24.65" shape-rendering="crispEdges"/><rect fill="#0d1222" x="1171.2" y="538.3" width="12.2" height="24.65" shape-rendering="crispEdges"/><rect fill="#0d1222" x="1183.4" y="538.3" width="12.2" height="24.65" shape-rendering="crispEdges"/><rect fill="#0a0e1a" x="1195.6" y="538.3" width="268.4" height="24.65" shape-rendering="crispEdges"/><rect fill="#0a0e1a" x="0" y="562.7" width="268.4" height="24.65" shape-rendering="crispEdges"/><rect fill="#0d1222" x="268.4" y="562.7" width="12.2" height="24.65" shape-rendering="crispEdges"/><rect fill="#0d1222" x="280.6" y="562.7" width="12.2" height="24.65" shape-rendering="crispEdges"/><rect fill="#050a1d" x="292.8" y="562.7" width="12.2" height="24.65" shape-rendering="crispEdges"/><rect fill="#0d1222" x="305" y="562.7" width="854" height="24.65" shape-rendering="crispEdges"/><rect fill="#0d1222" x="1159" y="562.7" width="12.2" height="24.65" shape-rendering="crispEdges"/><rect fill="#0d1222" x="1171.2" y="562.7" width="12.2" height="24.65" shape-rendering="crispEdges"/><rect fill="#0d1222" x="1183.4" y="562.7" width="12.2" height="24.65" shape-rendering="crispEdges"/><rect fill="#0a0e1a" x="1195.6" y="562.7" width="268.4" height="24.65" shape-rendering="crispEdges"/><rect fill="#0a0e1a" x="0" y="587.1" width="268.4" height="24.65" shape-rendering="crispEdges"/><rect fill="#0d1222" x="268.4" y="587.1" width="12.2" height="24.65" shape-rendering="crispEdges"/><rect fill="#0d1222" x="280.6" y="587.1" width="12.2" height="24.65" shape-rendering="crispEdges"/><rect fill="#0d1222" x="292.8" y="587.1" width="878.4" height="24.65" shape-rendering="crispEdges"/><rect fill="#0d1222" x="1171.2" y="587.1" width="12.2" height="24.65" shape-rendering="crispEdges"/><rect fill="#0d1222" x="1183.4" y="587.1" width="12.2" height="24.65" shape-rendering="crispEdges"/><rect fill="#0a0e1a" x="1195.6" y="587.1" width="268.4" height="24.65" shape-rendering="crispEdges"/><rect fill="#0a0e1a" x="0" y="611.5" width="268.4" height="24.65" shape-rendering="crispEdges"/><rect fill="#0d1222" x="268.4" y="611.5" width="12.2" height="24.65" shape-rendering="crispEdges"/><rect fill="#0d1222" x="280.6" y="611.5" width="12.2" height="24.65" shape-rendering="crispEdges"/><rect fill="#0d1222" x="292.8" y="611.5" width="158.6" height="24.65" shape-rendering="crispEdges"/><rect fill="#0d1222" x="451.4" y="611.5" width="12.2" height="24.65" shape-rendering="crispEdges"/><rect fill="#8fb8ff" x="463.6" y="611.5" width="207.4" height="24.65" shape-rendering="crispEdges"/><rect fill="#0d1222" x="671" y="611.5" width="12.2" height="24.65" shape-rendering="crispEdges"/><rect fill="#0d1222" x="683.2" y="611.5" width="97.6" height="24.65" shape-rendering="crispEdges"/><rect fill="#0d1222" x="780.8" y="611.5" width="390.4" height="24.65" shape-rendering="crispEdges"/><rect fill="#0d1222" x="1171.2" y="611.5" width="12.2" height="24.65" shape-rendering="crispEdges"/><rect fill="#0d1222" x="1183.4" y="611.5" width="12.2" height="24.65" shape-rendering="crispEdges"/><rect fill="#0a0e1a" x="1195.6" y="611.5" width="268.4" height="24.65" shape-rendering="crispEdges"/><rect fill="#0a0e1a" x="0" y="635.9" width="268.4" height="24.65" shape-rendering="crispEdges"/><rect fill="#0d1222" x="268.4" y="635.9" width="12.2" height="24.65" shape-rendering="crispEdges"/><rect fill="#0d1222" x="280.6" y="635.9" width="12.2" height="24.65" shape-rendering="crispEdges"/><rect fill="#0d1222" x="292.8" y="635.9" width="158.6" height="24.65" shape-rendering="crispEdges"/><rect fill="#0d1222" x="451.4" y="635.9" width="12.2" height="24.65" shape-rendering="crispEdges"/><rect fill="#8fb8ff" x="463.6" y="635.9" width="207.4" height="24.65" shape-rendering="crispEdges"/><rect fill="#0d1222" x="671" y="635.9" width="12.2" height="24.65" shape-rendering="crispEdges"/><rect fill="#0d1222" x="683.2" y="635.9" width="97.6" height="24.65" shape-rendering="crispEdges"/><rect fill="#0d1222" x="780.8" y="635.9" width="390.4" height="24.65" shape-rendering="crispEdges"/><rect fill="#0d1222" x="1171.2" y="635.9" width="12.2" height="24.65" shape-rendering="crispEdges"/><rect fill="#0d1222" x="1183.4" y="635.9" width="12.2" height="24.65" shape-rendering="crispEdges"/><rect fill="#0a0e1a" x="1195.6" y="635.9" width="268.4" height="24.65" shape-rendering="crispEdges"/><rect fill="#0a0e1a" x="0" y="660.3" width="268.4" height="24.65" shape-rendering="crispEdges"/><rect fill="#0d1222" x="268.4" y="660.3" width="12.2" height="24.65" shape-rendering="crispEdges"/><rect fill="#0d1222" x="280.6" y="660.3" width="12.2" height="24.65" shape-rendering="crispEdges"/><rect fill="#0d1222" x="292.8" y="660.3" width="158.6" height="24.65" shape-rendering="crispEdges"/><rect fill="#0d1222" x="451.4" y="660.3" width="12.2" height="24.65" shape-rendering="crispEdges"/><rect fill="#8fb8ff" x="463.6" y="660.3" width="207.4" height="24.65" shape-rendering="crispEdges"/><rect fill="#0d1222" x="671" y="660.3" width="12.2" height="24.65" shape-rendering="crispEdges"/><rect fill="#0d1222" x="683.2" y="660.3" width="97.6" height="24.65" shape-rendering="crispEdges"/><rect fill="#0d1222" x="780.8" y="660.3" width="390.4" height="24.65" shape-rendering="crispEdges"/><rect fill="#0d1222" x="1171.2" y="660.3" width="12.2" height="24.65" shape-rendering="crispEdges"/><rect fill="#0d1222" x="1183.4" y="660.3" width="12.2" height="24.65" shape-rendering="crispEdges"/><rect fill="#0a0e1a" x="1195.6" y="660.3" width="268.4" height="24.65" shape-rendering="crispEdges"/><rect fill="#0a0e1a" x="0" y="684.7" width="268.4" height="24.65" shape-rendering="crispEdges"/><rect fill="#0d1222" x="268.4" y="684.7" width="12.2" height="24.65" shape-rendering="crispEdges"/><rect fill="#0d1222" x="280.6" y="684.7" width="902.8" height="24.65" shape-rendering="crispEdges"/><rect fill="#0d1222" x="1183.4" y="684.7" width="12.2" height="24.65" shape-rendering="crispEdges"/><rect fill="#0a0e1a" x="1195.6" y="684.7" width="268.4" height="24.65" shape-rendering="crispEdges"/><rect fill="#0a0e1a" x="0" y="709.1" width="1464" height="24.65" shape-rendering="crispEdges"/><rect fill="#0a0e1a" x="0" y="733.5" width="1464" height="24.65" shape-rendering="crispEdges"/><rect fill="#0a0e1a" x="0" y="757.9" width="1464" height="24.65" shape-rendering="crispEdges"/><rect fill="#0a0e1a" x="0" y="782.3" width="1464" height="24.65" shape-rendering="crispEdges"/><rect fill="#0a0e1a" x="0" y="806.7" width="1464" height="24.65" shape-rendering="crispEdges"/><rect fill="#0a0e1a" x="0" y="831.1" width="1464" height="24.65" shape-rendering="crispEdges"/><rect fill="#0a0e1a" x="0" y="855.5" width="1464" height="24.65" shape-rendering="crispEdges"/><rect fill="#0a0e1a" x="0" y="879.9" width="1464" height="24.65" shape-rendering="crispEdges"/><rect fill="#0a0e1a" x="0" y="904.3" width="1464" height="24.65" shape-rendering="crispEdges"/><rect fill="#0a0e1a" x="0" y="928.7" width="1464" height="24.65" shape-rendering="crispEdges"/><rect fill="#0a0e1a" x="0" y="953.1" width="1464" height="24.65" shape-rendering="crispEdges"/>
    <g class="terminal-541306807-matrix">
    <text class="terminal-541306807-r1" x="1464" y="20" textLength="12.2" clip-path="url(#terminal-541306807-line-0)">
</text><text class="terminal-541306807-r1" x="1464" y="44.4" textLength="12.2" clip-path="url(#terminal-541306807-line-1)">
</text><text class="terminal-541306807-r1" x="1464" y="68.8" textLength="12.2" clip-path="url(#terminal-541306807-line-2)">
</text><text class="terminal-541306807-r1" x="1464" y="93.2" textLength="12.2" clip-path="url(#terminal-541306807-line-3)">
</text><text class="terminal-541306807-r1" x="1464" y="117.6" textLength="12.2" clip-path="url(#terminal-541306807-line-4)">
</text><text class="terminal-541306807-r1" x="1464" y="142" textLength="12.2" clip-path="url(#terminal-541306807-line-5)">
</text><text class="terminal-541306807-r1" x="1464" y="166.4" textLength="12.2" clip-path="url(#terminal-541306807-line-6)">
</text><text class="terminal-541306807-r1" x="1464" y="190.8" textLength="12.2" clip-path="url(#terminal-541306807-line-7)">
</text><text class="terminal-541306807-r1" x="1464" y="215.2" textLength="12.2" clip-path="url(#terminal-541306807-line-8)">
</text><text class="terminal-541306807-r1" x="1464" y="239.6" textLength="12.2" clip-path="url(#terminal-541306807-line-9)">
</text><text class="terminal-541306807-r2" x="268.4" y="264" textLength="12.2" clip-path="url(#terminal-541306807-line-10)">╭</text><text class="terminal-541306807-r2" x="280.6" y="264" textLength="12.2" clip-path="url(#terminal-541306807-line-10)">─</text><text class="terminal-541306807-r3" x="292.8" y="264" textLength="268.4" clip-path="url(#terminal-541306807-line-10)">&#160;?&#160;CO&#160;JE&#160;TO&#160;ZA&#160;SVĚTLO&#160;</text><text class="terminal-541306807-r2" x="561.2" y="264" textLength="622.2" clip-path="url(#terminal-541306807-line-10)">───────────────────────────────────────────────────</text><text class="terminal-541306807-r2" x="1183.4" y="264" textLength="12.2" clip-path="url(#terminal-541306807-line-10)">╮</text><text class="terminal-541306807-r1" x="1464" y="264" textLength="12.2" clip-path="url(#terminal-541306807-line-10)">
</text><text class="terminal-541306807-r2" x="268.4" y="288.4" textLength="12.2" clip-path="url(#terminal-541306807-line-11)">│</text><text class="terminal-541306807-r4" x="292.8" y="288.4" textLength="512.4" clip-path="url(#terminal-541306807-line-11)">Ukazuješ&#160;na&#160;východ,&#160;asi&#160;2&#160;pěsti&#160;nad&#160;obzor.</text><text class="terminal-541306807-r2" x="1183.4" y="288.4" textLength="12.2" clip-path="url(#terminal-541306807-line-11)">│</text><text class="terminal-541306807-r1" x="1464" y="288.4" textLength="12.2" clip-path="url(#terminal-541306807-line-11)">
</text><text class="terminal-541306807-r2" x="268.4" y="312.8" textLength="12.2" clip-path="url(#terminal-541306807-line-12)">│</text><text class="terminal-541306807-r2" x="1183.4" y="312.8" textLength="12.2" clip-path="url(#terminal-541306807-line-12)">│</text><text class="terminal-541306807-r1" x="1464" y="312.8" textLength="12.2" clip-path="url(#terminal-541306807-line-12)">
</text><text class="terminal-541306807-r2" x="268.4" y="337.2" textLength="12.2" clip-path="url(#terminal-541306807-line-13)">│</text><text class="terminal-541306807-r6" x="292.8" y="337.2" textLength="109.8" clip-path="url(#terminal-541306807-line-13)">●&#160;&#160;Saturn</text><text class="terminal-541306807-r5" x="402.6" y="337.2" textLength="134.2" clip-path="url(#terminal-541306807-line-13)">&#160;&#160;planeta&#160;&#160;</text><text class="terminal-541306807-r4" x="536.8" y="337.2" textLength="146.4" clip-path="url(#terminal-541306807-line-13)">jistota&#160;95&#160;%</text><text class="terminal-541306807-r2" x="1183.4" y="337.2" textLength="12.2" clip-path="url(#terminal-541306807-line-13)">│</text><text class="terminal-541306807-r1" x="1464" y="337.2" textLength="12.2" clip-path="url(#terminal-541306807-line-13)">
</text><text class="terminal-541306807-r2" x="268.4" y="361.6" textLength="12.2" clip-path="url(#terminal-541306807-line-14)">│</text><text class="terminal-541306807-r5" x="292.8" y="361.6" textLength="866.2" clip-path="url(#terminal-541306807-line-14)">Je&#160;to&#160;to&#160;nažloutlé&#160;světlo&#160;nízko&#160;na&#160;východě,&#160;asi&#160;2&#160;pěsti&#160;nad&#160;obzorem.&#160;Je</text><text class="terminal-541306807-r2" x="1183.4" y="361.6" textLength="12.2" clip-path="url(#terminal-541306807-line-14)">│</text><text class="terminal-541306807-r1" x="1464" y="361.6" textLength="12.2" clip-path="url(#terminal-541306807-line-14)">
</text><text class="terminal-541306807-r2" x="268.4" y="386" textLength="12.2" clip-path="url(#terminal-541306807-line-15)">│</text><text class="terminal-541306807-r5" x="292.8" y="386" textLength="805.2" clip-path="url(#terminal-541306807-line-15)">přesně&#160;tam,&#160;kam&#160;ukazuješ,&#160;a&#160;je&#160;to&#160;nejjasnější&#160;bod&#160;v&#160;okolí.&#160;Nebliká</text><text class="terminal-541306807-r2" x="1183.4" y="386" textLength="12.2" clip-path="url(#terminal-541306807-line-15)">│</text><text class="terminal-541306807-r1" x="1464" y="386" textLength="12.2" clip-path="url(#terminal-541306807-line-15)">
</text><text class="terminal-541306807-r2" x="268.4" y="410.4" textLength="12.2" clip-path="url(#terminal-541306807-line-16)">│</text><text class="terminal-541306807-r5" x="292.8" y="410.4" textLength="488" clip-path="url(#terminal-541306807-line-16)">(hvězdy&#160;blikají),&#160;protože&#160;je&#160;to&#160;planeta.</text><text class="terminal-541306807-r2" x="1183.4" y="410.4" textLength="12.2" clip-path="url(#terminal-541306807-line-16)">│</text><text class="terminal-541306807-r1" x="1464" y="410.4" textLength="12.2" clip-path="url(#terminal-541306807-line-16)">
</text><text class="terminal-541306807-r2" x="268.4" y="434.8" textLength="12.2" clip-path="url(#terminal-541306807-line-17)">│</text><text class="terminal-541306807-r2" x="1183.4" y="434.8" textLength="12.2" clip-path="url(#terminal-541306807-line-17)">│</text><text class="terminal-541306807-r1" x="1464" y="434.8" textLength="12.2" clip-path="url(#terminal-541306807-line-17)">
</text><text class="terminal-541306807-r2" x="268.4" y="459.2" textLength="12.2" clip-path="url(#terminal-541306807-line-18)">│</text><text class="terminal-541306807-r4" x="292.8" y="459.2" textLength="646.6" clip-path="url(#terminal-541306807-line-18)">nebo&#160;hvězda&#160;v&#160;souhvězdí&#160;Velryba&#160;(hvězda,&#160;jistota&#160;2&#160;%)</text><text class="terminal-541306807-r2" x="1183.4" y="459.2" textLength="12.2" clip-path="url(#terminal-541306807-line-18)">│</text><text class="terminal-541306807-r1" x="1464" y="459.2" textLength="12.2" clip-path="url(#terminal-541306807-line-18)">
</text><text class="terminal-541306807-r2" x="268.4" y="483.6" textLength="12.2" clip-path="url(#terminal-541306807-line-19)">│</text><text class="terminal-541306807-r4" x="292.8" y="483.6" textLength="646.6" clip-path="url(#terminal-541306807-line-19)">nebo&#160;hvězda&#160;v&#160;souhvězdí&#160;Velryba&#160;(hvězda,&#160;jistota&#160;1&#160;%)</text><text class="terminal-541306807-r2" x="1183.4" y="483.6" textLength="12.2" clip-path="url(#terminal-541306807-line-19)">│</text><text class="terminal-541306807-r1" x="1464" y="483.6" textLength="12.2" clip-path="url(#terminal-541306807-line-19)">
</text><text class="terminal-541306807-r2" x="268.4" y="508" textLength="12.2" clip-path="url(#terminal-541306807-line-20)">│</text><text class="terminal-541306807-r4" x="292.8" y="508" textLength="646.6" clip-path="url(#terminal-541306807-line-20)">nebo&#160;hvězda&#160;v&#160;souhvězdí&#160;Velryba&#160;(hvězda,&#160;jistota&#160;1&#160;%)</text><text class="terminal-541306807-r2" x="1183.4" y="508" textLength="12.2" clip-path="url(#terminal-541306807-line-20)">│</text><text class="terminal-541306807-r1" x="1464" y="508" textLength="12.2" clip-path="url(#terminal-541306807-line-20)">
</text><text class="terminal-541306807-r2" x="268.4" y="532.4" textLength="12.2" clip-path="url(#terminal-541306807-line-21)">│</text><text class="terminal-541306807-r7" x="292.8" y="532.4" textLength="12.2" clip-path="url(#terminal-541306807-line-21)">▊</text><text class="terminal-541306807-r8" x="305" y="532.4" textLength="854" clip-path="url(#terminal-541306807-line-21)">▔▔▔▔▔▔▔▔▔▔▔▔▔▔▔▔▔▔▔▔▔▔▔▔▔▔▔▔▔▔▔▔▔▔▔▔▔▔▔▔▔▔▔▔▔▔▔▔▔▔▔▔▔▔▔▔▔▔▔▔▔▔▔▔▔▔▔▔▔▔</text><text class="terminal-541306807-r8" x="1159" y="532.4" textLength="12.2" clip-path="url(#terminal-541306807-line-21)">▎</text><text class="terminal-541306807-r2" x="1183.4" y="532.4" textLength="12.2" clip-path="url(#terminal-541306807-line-21)">│</text><text class="terminal-541306807-r1" x="1464" y="532.4" textLength="12.2" clip-path="url(#terminal-541306807-line-21)">
</text><text class="terminal-541306807-r2" x="268.4" y="556.8" textLength="12.2" clip-path="url(#terminal-541306807-line-22)">│</text><text class="terminal-541306807-r7" x="292.8" y="556.8" textLength="12.2" clip-path="url(#terminal-541306807-line-22)">▊</text><text class="terminal-541306807-r9" x="329.4" y="556.8" textLength="561.2" clip-path="url(#terminal-541306807-line-22)">nebo&#160;napiš&#160;směr&#160;a&#160;výšku:&#160;„jihovýchod,&#160;2&#160;pěsti“</text><text class="terminal-541306807-r8" x="1159" y="556.8" textLength="12.2" clip-path="url(#terminal-541306807-line-22)">▎</text><text class="terminal-541306807-r2" x="1183.4" y="556.8" textLength="12.2" clip-path="url(#terminal-541306807-line-22)">│</text><text class="terminal-541306807-r1" x="1464" y="556.8" textLength="12.2" clip-path="url(#terminal-541306807-line-22)">
</text><text class="terminal-541306807-r2" x="268.4" y="581.2" textLength="12.2" clip-path="url(#terminal-541306807-line-23)">│</text><text class="terminal-541306807-r7" x="292.8" y="581.2" textLength="12.2" clip-path="url(#terminal-541306807-line-23)">▊</text><text class="terminal-541306807-r8" x="305" y="581.2" textLength="854" clip-path="url(#terminal-541306807-line-23)">▁▁▁▁▁▁▁▁▁▁▁▁▁▁▁▁▁▁▁▁▁▁▁▁▁▁▁▁▁▁▁▁▁▁▁▁▁▁▁▁▁▁▁▁▁▁▁▁▁▁▁▁▁▁▁▁▁▁▁▁▁▁▁▁▁▁▁▁▁▁</text><text class="terminal-541306807-r8" x="1159" y="581.2" textLength="12.2" clip-path="url(#terminal-541306807-line-23)">▎</text><text class="terminal-541306807-r2" x="1183.4" y="581.2" textLength="12.2" clip-path="url(#terminal-541306807-line-23)">│</text><text class="terminal-541306807-r1" x="1464" y="581.2" textLength="12.2" clip-path="url(#terminal-541306807-line-23)">
</text><text class="terminal-541306807-r2" x="268.4" y="605.6" textLength="12.2" clip-path="url(#terminal-541306807-line-24)">│</text><text class="terminal-541306807-r2" x="1183.4" y="605.6" textLength="12.2" clip-path="url(#terminal-541306807-line-24)">│</text><text class="terminal-541306807-r1" x="1464" y="605.6" textLength="12.2" clip-path="url(#terminal-541306807-line-24)">
</text><text class="terminal-541306807-r2" x="268.4" y="630" textLength="12.2" clip-path="url(#terminal-541306807-line-25)">│</text><text class="terminal-541306807-r10" x="292.8" y="630" textLength="158.6" clip-path="url(#terminal-541306807-line-25)">▔▔▔▔▔▔▔▔▔▔▔▔▔</text><text class="terminal-541306807-r11" x="463.6" y="630" textLength="207.4" clip-path="url(#terminal-541306807-line-25)">▔▔▔▔▔▔▔▔▔▔▔▔▔▔▔▔▔</text><text class="terminal-541306807-r10" x="683.2" y="630" textLength="97.6" clip-path="url(#terminal-541306807-line-25)">▔▔▔▔▔▔▔▔</text><text class="terminal-541306807-r2" x="1183.4" y="630" textLength="12.2" clip-path="url(#terminal-541306807-line-25)">│</text><text class="terminal-541306807-r1" x="1464" y="630" textLength="12.2" clip-path="url(#terminal-541306807-line-25)">
</text><text class="terminal-541306807-r2" x="268.4" y="654.4" textLength="12.2" clip-path="url(#terminal-541306807-line-26)">│</text><text class="terminal-541306807-r6" x="292.8" y="654.4" textLength="158.6" clip-path="url(#terminal-541306807-line-26)">&#160;pohybuje&#160;se&#160;</text><text class="terminal-541306807-r6" x="463.6" y="654.4" textLength="207.4" clip-path="url(#terminal-541306807-line-26)">&#160;vybrat&#160;a&#160;ukázat&#160;</text><text class="terminal-541306807-r6" x="683.2" y="654.4" textLength="97.6" clip-path="url(#terminal-541306807-line-26)">&#160;zavřít&#160;</text><text class="terminal-541306807-r2" x="1183.4" y="654.4" textLength="12.2" clip-path="url(#terminal-541306807-line-26)">│</text><text class="terminal-541306807-r1" x="1464" y="654.4" textLength="12.2" clip-path="url(#terminal-541306807-line-26)">
</text><text class="terminal-541306807-r2" x="268.4" y="678.8" textLength="12.2" clip-path="url(#terminal-541306807-line-27)">│</text><text class="terminal-541306807-r12" x="292.8" y="678.8" textLength="158.6" clip-path="url(#terminal-541306807-line-27)">▁▁▁▁▁▁▁▁▁▁▁▁▁</text><text class="terminal-541306807-r13" x="463.6" y="678.8" textLength="207.4" clip-path="url(#terminal-541306807-line-27)">▁▁▁▁▁▁▁▁▁▁▁▁▁▁▁▁▁</text><text class="terminal-541306807-r12" x="683.2" y="678.8" textLength="97.6" clip-path="url(#terminal-541306807-line-27)">▁▁▁▁▁▁▁▁</text><text class="terminal-541306807-r2" x="1183.4" y="678.8" textLength="12.2" clip-path="url(#terminal-541306807-line-27)">│</text><text class="terminal-541306807-r1" x="1464" y="678.8" textLength="12.2" clip-path="url(#terminal-541306807-line-27)">
</text><text class="terminal-541306807-r2" x="268.4" y="703.2" textLength="12.2" clip-path="url(#terminal-541306807-line-28)">╰</text><text class="terminal-541306807-r2" x="280.6" y="703.2" textLength="902.8" clip-path="url(#terminal-541306807-line-28)">──────────────────────────────────────────────────────────────────────────</text><text class="terminal-541306807-r2" x="1183.4" y="703.2" textLength="12.2" clip-path="url(#terminal-541306807-line-28)">╯</text><text class="terminal-541306807-r1" x="1464" y="703.2" textLength="12.2" clip-path="url(#terminal-541306807-line-28)">
</text><text class="terminal-541306807-r1" x="1464" y="727.6" textLength="12.2" clip-path="url(#terminal-541306807-line-29)">
</text><text class="terminal-541306807-r1" x="1464" y="752" textLength="12.2" clip-path="url(#terminal-541306807-line-30)">
</text><text class="terminal-541306807-r1" x="1464" y="776.4" textLength="12.2" clip-path="url(#terminal-541306807-line-31)">
</text><text class="terminal-541306807-r1" x="1464" y="800.8" textLength="12.2" clip-path="url(#terminal-541306807-line-32)">
</text><text class="terminal-541306807-r1" x="1464" y="825.2" textLength="12.2" clip-path="url(#terminal-541306807-line-33)">
</text><text class="terminal-541306807-r1" x="1464" y="849.6" textLength="12.2" clip-path="url(#terminal-541306807-line-34)">
</text><text class="terminal-541306807-r1" x="1464" y="874" textLength="12.2" clip-path="url(#terminal-541306807-line-35)">
</text><text class="terminal-541306807-r1" x="1464" y="898.4" textLength="12.2" clip-path="url(#terminal-541306807-line-36)">
</text><text class="terminal-541306807-r1" x="1464" y="922.8" textLength="12.2" clip-path="url(#terminal-541306807-line-37)">
</text><text class="terminal-541306807-r1" x="1464" y="947.2" textLength="12.2" clip-path="url(#terminal-541306807-line-38)">
</text>
    </g>
    </g>
</svg>
